<svg xmlns="http://www.w3.org/2000/svg" width="1298" height="540" viewBox="0 0 1298 540"><rect width="1298" height="540" fill="#0b0b0f"/><text x="78.00" y="30.00" font-size="16" fill="#eaeaf2" text-anchor="start" font-family="DejaVu Sans Mono, monospace" font-weight="bold">1/3 倍频程长期平均谱 (LTAS)</text><text x="78.00" y="50.00" font-size="12" fill="#9a9aa8" text-anchor="start" font-family="DejaVu Sans Mono, monospace" font-weight="normal">以峰值带为 0dB; 绿线为 A 加权后的相对电平 (IEC 61672)</text><rect x="78.00" y="84.00" width="1180.00" height="380.00" fill="#101018" stroke="#33333d" stroke-width="1.00"/><line x1="78.00" y1="464.00" x2="1258.00" y2="464.00" stroke="#22222c" stroke-width="1.00"/><line x1="73.00" y1="464.00" x2="78.00" y2="464.00" stroke="#8a8a99" stroke-width="1.00"/><text x="68.00" y="468.00" font-size="11" fill="#b9b9c8" text-anchor="end" font-family="DejaVu Sans Mono, monospace" font-weight="normal">-60</text><line x1="78.00" y1="404.62" x2="1258.00" y2="404.62" stroke="#22222c" stroke-width="1.00"/><line x1="73.00" y1="404.62" x2="78.00" y2="404.62" stroke="#8a8a99" stroke-width="1.00"/><text x="68.00" y="408.62" font-size="11" fill="#b9b9c8" text-anchor="end" font-family="DejaVu Sans Mono, monospace" font-weight="normal">-50</text><line x1="78.00" y1="345.25" x2="1258.00" y2="345.25" stroke="#22222c" stroke-width="1.00"/><line x1="73.00" y1="345.25" x2="78.00" y2="345.25" stroke="#8a8a99" stroke-width="1.00"/><text x="68.00" y="349.25" font-size="11" fill="#b9b9c8" text-anchor="end" font-family="DejaVu Sans Mono, monospace" font-weight="normal">-40</text><line x1="78.00" y1="285.88" x2="1258.00" y2="285.88" stroke="#22222c" stroke-width="1.00"/><line x1="73.00" y1="285.88" x2="78.00" y2="285.88" stroke="#8a8a99" stroke-width="1.00"/><text x="68.00" y="289.88" font-size="11" fill="#b9b9c8" text-anchor="end" font-family="DejaVu Sans Mono, monospace" font-weight="normal">-30</text><line x1="78.00" y1="226.50" x2="1258.00" y2="226.50" stroke="#22222c" stroke-width="1.00"/><line x1="73.00" y1="226.50" x2="78.00" y2="226.50" stroke="#8a8a99" stroke-width="1.00"/><text x="68.00" y="230.50" font-size="11" fill="#b9b9c8" text-anchor="end" font-family="DejaVu Sans Mono, monospace" font-weight="normal">-20</text><line x1="78.00" y1="167.12" x2="1258.00" y2="167.12" stroke="#22222c" stroke-width="1.00"/><line x1="73.00" y1="167.12" x2="78.00" y2="167.12" stroke="#8a8a99" stroke-width="1.00"/><text x="68.00" y="171.12" font-size="11" fill="#b9b9c8" text-anchor="end" font-family="DejaVu Sans Mono, monospace" font-weight="normal">-10</text><line x1="78.00" y1="107.75" x2="1258.00" y2="107.75" stroke="#22222c" stroke-width="1.00"/><line x1="73.00" y1="107.75" x2="78.00" y2="107.75" stroke="#8a8a99" stroke-width="1.00"/><text x="68.00" y="111.75" font-size="11" fill="#b9b9c8" text-anchor="end" font-family="DejaVu Sans Mono, monospace" font-weight="normal">0</text><rect x="79.50" y="308.41" width="37.69" height="155.59" fill="#3b5bdb" opacity="0.850"/><text x="98.34" y="484.00" font-size="10.5" fill="#b9b9c8" text-anchor="middle" font-family="DejaVu Sans Mono, monospace" font-weight="normal">25</text><rect x="120.19" y="275.58" width="37.69" height="188.42" fill="#3b5bdb" opacity="0.850"/><rect x="160.88" y="226.89" width="37.69" height="237.11" fill="#3b5bdb" opacity="0.850"/><text x="179.72" y="484.00" font-size="10.5" fill="#b9b9c8" text-anchor="middle" font-family="DejaVu Sans Mono, monospace" font-weight="normal">40</text><rect x="201.57" y="238.68" width="37.69" height="225.32" fill="#3b5bdb" opacity="0.850"/><rect x="242.26" y="257.19" width="37.69" height="206.81" fill="#3b5bdb" opacity="0.850"/><text x="261.10" y="484.00" font-size="10.5" fill="#b9b9c8" text-anchor="middle" font-family="DejaVu Sans Mono, monospace" font-weight="normal">63</text><rect x="282.95" y="240.35" width="37.69" height="223.65" fill="#3b5bdb" opacity="0.850"/><rect x="323.64" y="206.36" width="37.69" height="257.64" fill="#3b5bdb" opacity="0.850"/><text x="342.48" y="484.00" font-size="10.5" fill="#b9b9c8" text-anchor="middle" font-family="DejaVu Sans Mono, monospace" font-weight="normal">100</text><rect x="364.33" y="182.78" width="37.69" height="281.22" fill="#3b5bdb" opacity="0.850"/><rect x="405.02" y="176.65" width="37.69" height="287.35" fill="#3b5bdb" opacity="0.850"/><text x="423.86" y="484.00" font-size="10.5" fill="#b9b9c8" text-anchor="middle" font-family="DejaVu Sans Mono, monospace" font-weight="normal">160</text><rect x="445.71" y="219.44" width="37.69" height="244.56" fill="#3b5bdb" opacity="0.850"/><rect x="486.40" y="158.10" width="37.69" height="305.90" fill="#3b5bdb" opacity="0.850"/><text x="505.24" y="484.00" font-size="10.5" fill="#b9b9c8" text-anchor="middle" font-family="DejaVu Sans Mono, monospace" font-weight="normal">250</text><rect x="527.09" y="206.89" width="37.69" height="257.11" fill="#3b5bdb" opacity="0.850"/><rect x="567.78" y="236.97" width="37.69" height="227.03" fill="#3b5bdb" opacity="0.850"/><text x="586.62" y="484.00" font-size="10.5" fill="#b9b9c8" text-anchor="middle" font-family="DejaVu Sans Mono, monospace" font-weight="normal">400</text><rect x="608.47" y="227.29" width="37.69" height="236.71" fill="#3b5bdb" opacity="0.850"/><rect x="649.16" y="219.24" width="37.69" height="244.76" fill="#3b5bdb" opacity="0.850"/><text x="668.00" y="484.00" font-size="10.5" fill="#b9b9c8" text-anchor="middle" font-family="DejaVu Sans Mono, monospace" font-weight="normal">630</text><rect x="689.84" y="211.64" width="37.69" height="252.36" fill="#3b5bdb" opacity="0.850"/><rect x="730.53" y="205.66" width="37.69" height="258.34" fill="#3b5bdb" opacity="0.850"/><text x="749.38" y="484.00" font-size="10.5" fill="#b9b9c8" text-anchor="middle" font-family="DejaVu Sans Mono, monospace" font-weight="normal">1k</text><rect x="771.22" y="189.84" width="37.69" height="274.16" fill="#3b5bdb" opacity="0.850"/><rect x="811.91" y="197.78" width="37.69" height="266.22" fill="#3b5bdb" opacity="0.850"/><text x="830.76" y="484.00" font-size="10.5" fill="#b9b9c8" text-anchor="middle" font-family="DejaVu Sans Mono, monospace" font-weight="normal">1.6k</text><rect x="852.60" y="212.25" width="37.69" height="251.75" fill="#3b5bdb" opacity="0.850"/><rect x="893.29" y="175.30" width="37.69" height="288.70" fill="#3b5bdb" opacity="0.850"/><text x="912.14" y="484.00" font-size="10.5" fill="#b9b9c8" text-anchor="middle" font-family="DejaVu Sans Mono, monospace" font-weight="normal">2.5k</text><rect x="933.98" y="187.56" width="37.69" height="276.44" fill="#3b5bdb" opacity="0.850"/><rect x="974.67" y="177.17" width="37.69" height="286.83" fill="#3b5bdb" opacity="0.850"/><text x="993.52" y="484.00" font-size="10.5" fill="#b9b9c8" text-anchor="middle" font-family="DejaVu Sans Mono, monospace" font-weight="normal">4k</text><rect x="1015.36" y="180.33" width="37.69" height="283.67" fill="#3b5bdb" opacity="0.850"/><rect x="1056.05" y="141.35" width="37.69" height="322.65" fill="#3b5bdb" opacity="0.850"/><text x="1074.90" y="484.00" font-size="10.5" fill="#b9b9c8" text-anchor="middle" font-family="DejaVu Sans Mono, monospace" font-weight="normal">6.3k</text><rect x="1096.74" y="188.60" width="37.69" height="275.40" fill="#3b5bdb" opacity="0.850"/><rect x="1137.43" y="162.85" width="37.69" height="301.15" fill="#3b5bdb" opacity="0.850"/><text x="1156.28" y="484.00" font-size="10.5" fill="#b9b9c8" text-anchor="middle" font-family="DejaVu Sans Mono, monospace" font-weight="normal">10k</text><rect x="1178.12" y="107.75" width="37.69" height="356.25" fill="#3b5bdb" opacity="0.850"/><rect x="1218.81" y="189.14" width="37.69" height="274.86" fill="#3b5bdb" opacity="0.850"/><text x="1237.66" y="484.00" font-size="10.5" fill="#b9b9c8" text-anchor="middle" font-family="DejaVu Sans Mono, monospace" font-weight="normal">16k</text><polyline points="98.34,464.00 139.03,464.00 179.72,431.97 220.41,418.44 261.10,412.88 301.79,373.33 342.48,320.03 383.17,278.90 423.86,255.28 464.55,283.84 505.24,209.60 545.93,246.34 586.62,265.32 627.31,246.57 668.00,230.57 708.69,216.36 749.38,205.66 790.07,186.42 830.76,191.89 871.45,205.11 912.14,167.75 952.83,180.43 993.52,171.45 1034.21,177.04 1074.90,142.04 1115.59,195.41 1156.28,177.64 1196.97,133.01 1237.66,228.96" fill="none" stroke="#7ee081" stroke-width="2.00"/><circle cx="98.3" cy="464.0" r="2.2" fill="#7ee081"/><circle cx="139.0" cy="464.0" r="2.2" fill="#7ee081"/><circle cx="179.7" cy="432.0" r="2.2" fill="#7ee081"/><circle cx="220.4" cy="418.4" r="2.2" fill="#7ee081"/><circle cx="261.1" cy="412.9" r="2.2" fill="#7ee081"/><circle cx="301.8" cy="373.3" r="2.2" fill="#7ee081"/><circle cx="342.5" cy="320.0" r="2.2" fill="#7ee081"/><circle cx="383.2" cy="278.9" r="2.2" fill="#7ee081"/><circle cx="423.9" cy="255.3" r="2.2" fill="#7ee081"/><circle cx="464.6" cy="283.8" r="2.2" fill="#7ee081"/><circle cx="505.2" cy="209.6" r="2.2" fill="#7ee081"/><circle cx="545.9" cy="246.3" r="2.2" fill="#7ee081"/><circle cx="586.6" cy="265.3" r="2.2" fill="#7ee081"/><circle cx="627.3" cy="246.6" r="2.2" fill="#7ee081"/><circle cx="668.0" cy="230.6" r="2.2" fill="#7ee081"/><circle cx="708.7" cy="216.4" r="2.2" fill="#7ee081"/><circle cx="749.4" cy="205.7" r="2.2" fill="#7ee081"/><circle cx="790.1" cy="186.4" r="2.2" fill="#7ee081"/><circle cx="830.8" cy="191.9" r="2.2" fill="#7ee081"/><circle cx="871.4" cy="205.1" r="2.2" fill="#7ee081"/><circle cx="912.1" cy="167.8" r="2.2" fill="#7ee081"/><circle cx="952.8" cy="180.4" r="2.2" fill="#7ee081"/><circle cx="993.5" cy="171.4" r="2.2" fill="#7ee081"/><circle cx="1034.2" cy="177.0" r="2.2" fill="#7ee081"/><circle cx="1074.9" cy="142.0" r="2.2" fill="#7ee081"/><circle cx="1115.6" cy="195.4" r="2.2" fill="#7ee081"/><circle cx="1156.3" cy="177.6" r="2.2" fill="#7ee081"/><circle cx="1197.0" cy="133.0" r="2.2" fill="#7ee081"/><circle cx="1237.7" cy="229.0" r="2.2" fill="#7ee081"/><text x="668.00" y="512.00" font-size="12" fill="#d8d8e0" text-anchor="middle" font-family="DejaVu Sans Mono, monospace" font-weight="normal">1/3 倍频程中心频率 (Hz)</text><text x="20.00" y="274.00" font-size="12" fill="#d8d8e0" text-anchor="middle" font-family="DejaVu Sans Mono, monospace" font-weight="normal" transform="rotate(-90.0 20.00 274.00)">相对电平 (dB)</text><text x="1252.00" y="100.00" font-size="12" fill="#d8d8e0" text-anchor="end" font-family="DejaVu Sans Mono, monospace" font-weight="normal">蓝柱: 未加权    绿线: A 加权</text></svg>